<svg width="50" height="50" viewBox="0 0 50 50" fill="none" xmlns="http://www.w3.org/2000/svg">
<rect width="50" height="50" fill="white"/>
<path d="M23.64 38.504C22.26 38.504 20.97 38.324 19.77 37.964C18.582 37.604 17.472 37.148 16.44 36.596L17.268 33.428C18.3 34.016 19.314 34.496 20.31 34.868C21.318 35.228 22.44 35.408 23.676 35.408C25.248 35.408 26.472 35.018 27.348 34.238C28.236 33.446 28.68 32.432 28.68 31.196C28.68 29.804 28.2 28.688 27.24 27.848C26.28 27.008 24.78 26.588 22.74 26.588H21.156V23.492H22.74C24.288 23.492 25.512 23.126 26.412 22.394C27.324 21.662 27.78 20.66 27.78 19.388C27.78 18.032 27.432 17.03 26.736 16.382C26.04 15.722 25.044 15.392 23.748 15.392C22.728 15.392 21.774 15.59 20.886 15.986C19.998 16.382 19.128 16.868 18.276 17.444L17.7 13.952C18.624 13.424 19.62 13.016 20.688 12.728C21.768 12.44 22.944 12.296 24.216 12.296C25.776 12.296 27.096 12.578 28.176 13.142C29.268 13.706 30.096 14.492 30.66 15.5C31.236 16.496 31.524 17.648 31.524 18.956C31.524 20.588 31.044 21.968 30.084 23.096C29.136 24.212 27.852 24.944 26.232 25.292V24.464C28.14 24.836 29.628 25.562 30.696 26.642C31.776 27.71 32.316 29.192 32.316 31.088C32.316 32.624 31.932 33.95 31.164 35.066C30.408 36.17 29.376 37.022 28.068 37.622C26.76 38.21 25.284 38.504 23.64 38.504Z" fill="#272626"/>
</svg>
